<svg id="Capa_1" enable-background="new 0 0 512 512" height="512" viewBox="0 0 512 512" width="512" xmlns="http://www.w3.org/2000/svg"><g><path d="m0 32h320v480h-320z" fill="#fff5f5"/><path d="m160 32h160v480h-160z" fill="#ece6f2"/><path d="m89.18 0h141.64v64h-141.64z" fill="#68a5ff"/><path d="m160 0h70.82v64h-70.82z" fill="#4290ff"/><g fill="#d7d0e5"><path d="m69.625 180.75h30.125v30h-30.125z"/><path d="m129.88 180.75h120.5v30h-120.5z"/><path d="m69.625 241h30.125v30h-30.125z"/><path d="m129.88 241h120.5v30h-120.5z"/><path d="m69.625 301.25h30.125v30h-30.125z"/><path d="m129.88 301.25h120.5v30h-120.5z"/><path d="m69.625 361.5h30.125v30h-30.125z"/><path d="m129.88 361.5h120.5v30h-120.5z"/></g><path d="m160 180.75h90.38v30h-90.38z" fill="#a4abcb"/><path d="m160 241h90.38v30h-90.38z" fill="#a4abcb"/><path d="m160 301.25h90.38v30h-90.38z" fill="#a4abcb"/><path d="m160 361.5h90.38v30h-90.38z" fill="#a4abcb"/><path d="m402.88 466.88h30v45.12h-30z" fill="#fd4f52"/><path d="m417.88 466.88h15v45.12h-15z" fill="#ca2d60"/><path d="m402.88 0h30v45.12h-30z" fill="#4f72af"/><path d="m417.88 0h15v45.12h-15z" fill="#365c89"/><path d="m512 195.75h-30v-105.5h-45.25v-30h75.25z" fill="#365c89"/><path d="m449.88 120.5-13.13 15 13.13 15v30.25l-13.13 15 13.13 15v242.69c0 17.68-14.33 32-32 32-17.68 0-32-14.32-32-32v-242.69l14.22-15-14.22-15v-30.25l14.22-15-14.22-15v-88.5h64z" fill="#ffb900"/><path d="m449.88 120.5-13.13 15 13.13 15v30.25l-13.13 15 13.13 15v242.69c0 17.68-14.33 32-32 32v-453.44h32z" fill="#fe8d00"/><path d="m385.88 120.5h64v30h-64z" fill="#ffe46c"/><path d="m385.88 180.75h64v30h-64z" fill="#ffe46c"/><path d="m417.88 120.5h32v30h-32z" fill="#ffb900"/><path d="m417.88 180.75h32v30h-32z" fill="#ffb900"/></g></svg>